<svg width="20" height="20" viewBox="0 0 20 20" fill="none" xmlns="http://www.w3.org/2000/svg">
<path d="M12.4009 12.6433L12.5664 12.5664L12.6433 12.4009L16.4533 4.2109L16.8307 3.39976C18.483 5.1093 19.5 7.43664 19.5 10C19.5 15.2439 15.2439 19.5 10 19.5C7.43664 19.5 5.1093 18.483 3.39976 16.8307L4.2109 16.4533L12.4009 12.6433ZM16.6002 3.16931L15.7891 3.54665L7.5991 7.35665L7.43363 7.43363L7.35665 7.5991L3.54665 15.7891L3.16931 16.6002C1.51703 14.8907 0.5 12.5634 0.5 10C0.5 4.75614 4.75614 0.5 10 0.5C12.5634 0.5 14.8907 1.51703 16.6002 3.16931ZM9.4 10C9.4 9.66614 9.66614 9.4 10 9.4C10.3339 9.4 10.6 9.66614 10.6 10C10.6 10.3339 10.3339 10.6 10 10.6C9.66614 10.6 9.4 10.3339 9.4 10Z" fill="white" stroke="black"/>
</svg>
