<svg width="24" height="24" viewBox="0 0 24 24" fill="none" xmlns="http://www.w3.org/2000/svg">
<path d="M12.5 15C13.2 15 13.7917 14.7583 14.275 14.275C14.7583 13.7917 15 13.2 15 12.5V7H18V5H14V10.5C13.7833 10.3333 13.55 10.2083 13.3 10.125C13.05 10.0417 12.7833 10 12.5 10C11.8 10 11.2083 10.2417 10.725 10.725C10.2417 11.2083 10 11.8 10 12.5C10 13.2 10.2417 13.7917 10.725 14.275C11.2083 14.7583 11.8 15 12.5 15ZM8 18C7.45 18 6.97933 17.8043 6.588 17.413C6.196 17.021 6 16.55 6 16V4C6 3.45 6.196 2.979 6.588 2.587C6.97933 2.19567 7.45 2 8 2H20C20.55 2 21.021 2.19567 21.413 2.587C21.8043 2.979 22 3.45 22 4V16C22 16.55 21.8043 17.021 21.413 17.413C21.021 17.8043 20.55 18 20 18H8ZM4 22C3.45 22 2.97933 21.8043 2.588 21.413C2.196 21.021 2 20.55 2 20V6H4V20H18V22H4Z" fill="black"/>
</svg>
